HIERARCHY
ROOT Hips
{
	OFFSET 0.000000 0.000000 0.000000
	CHANNELS 6 Xposition Yposition Zposition Zrotation Yrotation Xrotation 
	JOINT LHipJoint
	{
		OFFSET 0.000000 0.000000 0.000000
		CHANNELS 3 Zrotation Yrotation Xrotation
		JOINT LeftUpLeg
		{
			OFFSET 1.363060 -1.794630 0.839290
			CHANNELS 3 Zrotation Yrotation Xrotation
			JOINT LeftLeg
			{
				OFFSET 2.448110 -6.726130 0.000000
				CHANNELS 3 Zrotation Yrotation Xrotation
				JOINT LeftFoot
				{
					OFFSET 2.562200 -7.039590 0.000000
					CHANNELS 3 Zrotation Yrotation Xrotation
					JOINT LeftToeBase
					{
						OFFSET 0.157640 -0.433110 2.322550
						CHANNELS 3 Zrotation Yrotation Xrotation
						End Site
						{
							OFFSET 0.000000 0.000000 0.000000
						}
					}
				}
			}
		}
	}
	JOINT RHipJoint
	{
		OFFSET 0.000000 0.000000 0.000000
		CHANNELS 3 Zrotation Yrotation Xrotation
		JOINT RightUpLeg
		{
			OFFSET -1.305520 -1.794630 0.839290
			CHANNELS 3 Zrotation Yrotation Xrotation
			JOINT RightLeg
			{
				OFFSET -2.542530 -6.985550 0.000000
				CHANNELS 3 Zrotation Yrotation Xrotation
				JOINT RightFoot
				{
					OFFSET -2.568260 -7.056230 0.000000
					CHANNELS 3 Zrotation Yrotation Xrotation
					JOINT RightToeBase
					{
						OFFSET -0.164730 -0.452590 2.363150
						CHANNELS 3 Zrotation Yrotation Xrotation
						End Site
						{
							OFFSET 0.000000 0.000000 0.000000
						}
					}
				}
			}
		}
	}
	JOINT LowerBack
	{
		OFFSET 0.000000 0.000000 0.000000
		CHANNELS 3 Zrotation Yrotation Xrotation
		JOINT Spine
		{
			OFFSET 0.028270 2.035590 -0.193380
			CHANNELS 3 Zrotation Yrotation Xrotation
			JOINT Spine1
			{
				OFFSET 0.056720 2.048850 -0.042750
				CHANNELS 3 Zrotation Yrotation Xrotation
				JOINT Neck
				{
					OFFSET 0.000000 0.000000 0.000000
					CHANNELS 3 Zrotation Yrotation Xrotation
					JOINT Neck1
					{
						OFFSET -0.054170 1.746240 0.172020
						CHANNELS 3 Zrotation Yrotation Xrotation
						JOINT Head
						{
							OFFSET 0.104070 1.761360 -0.123970
							CHANNELS 3 Zrotation Yrotation Xrotation
							End Site
							{
								OFFSET 0.000000 0.000000 0.000000
							}
						}
					}
				}
				JOINT LeftShoulder
				{
					OFFSET 0.000000 0.000000 0.000000
					CHANNELS 3 Zrotation Yrotation Xrotation
					JOINT LeftArm
					{
						OFFSET 3.362410 1.200890 -0.311210
						CHANNELS 3 Zrotation Yrotation Xrotation
						JOINT LeftForeArm
						{
							OFFSET 4.983000 -0.000000 -0.000000
							CHANNELS 3 Zrotation Yrotation Xrotation
							JOINT LeftHand
							{
								OFFSET 3.483560 -0.000000 -0.000000
								CHANNELS 3 Zrotation Yrotation Xrotation
								JOINT LeftFingerBase
								{
									OFFSET 0.000000 0.000000 0.000000
									CHANNELS 3 Zrotation Yrotation Xrotation
									JOINT LeftHandIndex1
									{
										OFFSET 0.715260 -0.000000 -0.000000
										CHANNELS 3 Zrotation Yrotation Xrotation
										End Site
										{
											OFFSET 0.000000 0.000000 0.000000
										}
									}
								}
								JOINT LThumb
								{
									OFFSET 0.000000 0.000000 0.000000
									CHANNELS 3 Zrotation Yrotation Xrotation
									End Site
									{
										OFFSET 0.000000 0.000000 0.000000
									}
								}
							}
						}
					}
				}
				JOINT RightShoulder
				{
					OFFSET 0.000000 0.000000 0.000000
					CHANNELS 3 Zrotation Yrotation Xrotation
					JOINT RightArm
					{
						OFFSET -3.136600 1.374050 -0.404650
						CHANNELS 3 Zrotation Yrotation Xrotation
						JOINT RightForeArm
						{
							OFFSET -5.241900 -0.000000 -0.000000
							CHANNELS 3 Zrotation Yrotation Xrotation
							JOINT RightHand
							{
								OFFSET -3.444170 -0.000000 -0.000000
								CHANNELS 3 Zrotation Yrotation Xrotation
								JOINT RightFingerBase
								{
									OFFSET 0.000000 0.000000 0.000000
									CHANNELS 3 Zrotation Yrotation Xrotation
									JOINT RightHandIndex1
									{
										OFFSET -0.622530 -0.000000 -0.000000
										CHANNELS 3 Zrotation Yrotation Xrotation
										End Site
										{
											OFFSET 0.000000 0.000000 0.000000
										}
									}
								}
								JOINT RThumb
								{
									OFFSET 0.000000 0.000000 0.000000
									CHANNELS 3 Zrotation Yrotation Xrotation
									End Site
									{
										OFFSET 0.000000 0.000000 0.000000
									}
								}
							}
						}
					}
				}
			}
		}
	}
}
MOTION
Frames: 10
Frame Time: 0.008333
9.013132 17.220672 -1.022921 1.697336 -0.058040 -6.882524 -3.416891 -1.138372 0.162491 -4.672215 2.674520 -16.852919 4.996393 14.967086 44.091928 -2.383406 9.315366 -3.651648 0.593300 -4.931200 -13.712400 0.673252 0.636925 -1.066553 9.296668 -1.722576 -13.369402 -5.659242 -15.367479 46.660820 2.069555 -11.142892 -17.246089 -0.415000 4.134900 -11.456600 -1.082591 0.168910 2.791686 0.682564 -0.123637 -4.355067 3.030545 0.433250 -1.306283 -7.505171 -5.309758 -9.960694 3.640005 -6.583498 12.625474 1.788100 -3.405400 7.137700 3.860954 -16.769143 -0.353538 -27.084764 -50.581423 21.703277 16.974724 -19.753817 -5.466891 -2.468557 -4.340642 -19.719838 14.547527 37.065264 11.854300 -7.125000 0.000000 0.000000 -25.464400 69.604000 -15.337200 -3.873331 17.510848 -2.813269 21.778525 49.758654 -3.378407 -11.416161 14.841473 -4.144593 -3.128508 -2.178009 26.157678 -24.921378 29.986619 -13.526000 7.125000 0.000000 0.000000 5.146900 6.263300 5.699700 
9.008556 17.212575 -1.014589 1.560426 -0.113207 -6.897011 -3.391344 -1.131294 0.153437 -4.505966 2.675739 -16.854178 5.039245 14.992182 44.209601 -2.357724 9.254050 -3.717721 0.596300 -4.943700 -13.748100 0.667531 0.635651 -1.067769 9.493908 -1.595116 -13.322890 -5.655372 -15.375721 46.680355 2.040406 -11.082939 -17.319335 -0.404000 4.080500 -11.303300 -0.930518 0.202540 2.745342 0.687775 -0.080677 -4.349104 3.006036 0.453023 -1.265776 -7.488114 -5.325317 -9.983680 3.637494 -6.605265 12.633886 1.783500 -3.414700 7.147400 3.867464 -16.770625 -0.347042 -27.087176 -50.608846 21.710684 16.954961 -19.743514 -5.464409 -2.467114 -4.344161 -19.591520 14.475307 37.156284 11.825200 -7.125000 0.000000 0.000000 -25.722600 69.668900 -15.536500 -3.871397 17.511558 -2.838953 21.674011 49.808038 -3.666360 -11.427633 14.863512 -4.078721 -3.155550 -2.094564 25.911243 -23.689973 29.945293 -12.657100 7.125000 0.000000 0.000000 5.843100 5.807000 6.436400 
9.005974 17.206356 -1.005671 1.533685 -0.126180 -6.944258 -3.383628 -1.126693 0.151650 -4.484169 2.666292 -16.828102 5.067554 15.014229 44.298581 -2.395228 9.352246 -3.793075 0.631000 -5.082800 -14.144800 0.664094 0.632753 -1.067433 9.546331 -1.588945 -13.262197 -5.668795 -15.388214 46.736174 2.043541 -11.112208 -17.384602 -0.422400 4.171400 -11.559300 -0.899643 0.222790 2.727679 0.687114 -0.052786 -4.343505 3.013449 0.463335 -1.223934 -7.518261 -5.328056 -10.011105 3.670233 -6.607691 12.650160 1.815800 -3.416600 7.167900 3.863397 -16.761025 -0.359041 -27.132981 -50.642601 21.709404 16.913893 -19.701351 -5.459393 -2.477800 -4.348371 -19.381055 14.417018 37.283559 11.818000 -7.125000 0.000000 0.000000 -26.014000 69.770500 -15.778700 -3.874145 17.496929 -2.813325 21.630777 49.789873 -3.594839 -11.546785 14.971758 -4.070060 -3.164252 -2.052548 25.643414 -23.053692 29.936560 -12.215000 7.125000 0.000000 0.000000 6.206800 5.583800 6.819700 
9.004801 17.201310 -0.996635 1.575627 -0.088454 -7.006593 -3.384070 -1.121416 0.158669 -4.550901 2.590526 -16.748382 5.079460 15.030576 44.365263 -2.395233 9.356768 -3.879733 0.619400 -5.036700 -14.013200 0.665861 0.626533 -1.063027 9.488224 -1.749344 -13.234667 -5.708361 -15.412113 46.849014 2.085712 -11.198344 -17.247446 -0.458600 4.344000 -12.046600 -0.920183 0.263024 2.750671 0.667773 0.003301 -4.345422 2.911742 0.488453 -1.260640 -7.432006 -5.358227 -9.942579 3.677702 -6.673462 12.632563 1.802200 -3.441800 7.132300 3.858616 -16.753854 -0.381721 -27.229602 -50.691289 21.988364 16.924936 -19.684495 -5.468696 -2.486281 -4.353698 -19.309147 14.433614 37.401569 11.861100 -7.125000 0.000000 0.000000 -26.180500 69.880700 -15.947600 -3.871795 17.486588 -2.735156 21.619161 49.662606 -3.512533 -11.607325 15.028513 -4.100038 -3.161289 -2.071164 25.413133 -23.154658 30.007624 -12.302800 7.125000 0.000000 0.000000 6.165000 5.692300 6.783800 
9.002571 17.194386 -0.987834 1.605538 -0.051644 -7.039784 -3.378148 -1.120251 0.157283 -4.605146 2.474999 -16.680592 5.097170 15.054603 44.465684 -2.335598 9.212838 -3.992478 0.577200 -4.865300 -13.524700 0.672598 0.622644 -1.062959 9.423042 -1.864277 -13.234079 -5.752308 -15.433266 46.928526 2.064228 -10.891880 -16.294974 -0.401400 4.067800 -11.267600 -0.919934 0.341935 2.725918 0.636619 0.111935 -4.341861 2.723411 0.536260 -1.261242 -7.236178 -5.433793 -9.880969 3.654991 -6.815327 12.609112 1.736200 -3.495600 7.081500 3.864014 -16.739969 -0.423338 -27.340392 -50.831350 22.375826 16.965453 -19.693951 -5.482773 -2.489754 -4.353971 -19.230031 14.452237 37.519695 11.901000 -7.125000 0.000000 0.000000 -26.351800 69.987900 -16.118700 -3.862550 17.474653 -2.635182 21.486696 49.496428 -3.839693 -11.547645 15.028742 -4.098801 -3.147087 -2.084368 25.265826 -23.201665 30.074405 -12.359400 7.125000 0.000000 0.000000 6.144100 5.774000 6.768300 
8.999168 17.186524 -0.979971 1.617117 -0.024386 -7.053076 -3.372110 -1.122738 0.149323 -4.635020 2.415306 -16.665686 5.125921 15.083208 44.576967 -2.348182 9.249303 -4.093185 0.588100 -4.909900 -13.651800 0.673614 0.622947 -1.063432 9.400196 -1.919012 -13.231227 -5.764927 -15.441597 46.969887 2.050336 -10.861916 -16.333145 -0.392800 4.024100 -11.144600 -0.944817 0.370356 2.670483 0.625168 0.151860 -4.335367 2.657089 0.551266 -1.205431 -7.122722 -5.479017 -9.894956 3.631019 -6.893557 12.617458 1.685000 -3.524700 7.072200 3.871079 -16.720069 -0.435517 -27.331283 -50.894001 22.483467 16.946717 -19.682078 -5.475732 -2.498758 -4.348212 -19.105541 14.518166 37.557566 11.953800 -7.125000 0.000000 0.000000 -26.329200 70.038200 -16.133300 -3.853898 17.458070 -2.593896 21.414581 49.446863 -3.923484 -11.536496 15.051536 -4.091549 -3.128579 -2.091662 25.127311 -23.208667 30.055679 -12.362100 7.125000 0.000000 0.000000 6.129600 5.749800 6.749900 
8.994239 17.179248 -0.973635 1.629269 -0.036745 -7.074208 -3.367390 -1.120129 0.150029 -4.639325 2.432039 -16.664972 5.147978 15.099627 44.643345 -2.395684 9.371693 -4.146977 0.620700 -5.041700 -14.027600 0.666778 0.624293 -1.067565 9.407991 -1.946858 -13.261697 -5.799655 -15.470078 47.092800 2.058289 -10.900267 -16.383130 -0.411500 4.118100 -11.409000 -1.002068 0.364084 2.661100 0.627514 0.144577 -4.334771 2.688271 0.546849 -1.179956 -7.078707 -5.474370 -9.944402 3.626044 -6.889737 12.644460 1.659500 -3.518700 7.098600 3.875500 -16.710999 -0.420595 -27.210803 -50.827621 22.427206 16.905986 -19.679749 -5.474338 -2.505593 -4.358185 -19.103874 14.690440 37.650383 12.099600 -7.125000 0.000000 0.000000 -26.259700 70.173700 -16.166500 -3.848340 17.453468 -2.605965 21.458985 49.464187 -3.763022 -11.523560 15.038035 -4.113057 -3.113918 -2.124999 25.205138 -23.709447 30.089822 -12.717200 7.125000 0.000000 0.000000 5.847600 5.946400 6.454200 
8.989193 17.173029 -0.967533 1.685162 -0.042769 -7.102024 -3.365765 -1.118375 0.154277 -4.681690 2.432030 -16.656984 5.165505 15.116115 44.711663 -2.406308 9.401692 -4.211583 0.640500 -5.120300 -14.252000 0.659655 0.626890 -1.072581 9.359873 -1.963477 -13.313744 -5.853060 -15.512496 47.278718 2.037129 -10.865870 -16.474693 -0.419800 4.158900 -11.524100 -1.099309 0.366910 2.687577 0.624268 0.150148 -4.339240 2.722719 0.549593 -1.196310 -7.075296 -5.464979 -9.992997 3.654445 -6.877277 12.657350 1.668800 -3.510000 7.132200 3.873165 -16.715641 -0.425797 -27.130023 -50.775674 22.401109 16.873231 -19.668039 -5.479188 -2.510429 -4.374885 -19.087950 14.769823 37.793316 12.195600 -7.125000 0.000000 0.000000 -26.402600 70.330200 -16.348600 -3.849551 17.460777 -2.604996 21.493267 49.429838 -3.644868 -11.459357 14.992484 -4.159414 -3.091322 -2.186471 25.378020 -24.674346 30.255875 -13.441300 7.125000 0.000000 0.000000 5.326400 6.436600 5.914200 
8.983561 17.167279 -0.962135 1.727943 -0.044366 -7.103135 -3.360373 -1.120110 0.153054 -4.706219 2.437182 -16.682187 5.184949 15.133507 44.784676 -2.389389 9.360767 -4.246059 0.648800 -5.152400 -14.343800 0.658273 0.630097 -1.073341 9.338699 -1.926639 -13.342374 -5.883961 -15.537102 47.387452 2.033307 -10.868369 -16.519976 -0.412900 4.124600 -11.427300 -1.154564 0.396207 2.713893 0.615073 0.190173 -4.346569 2.727185 0.568991 -1.225874 -7.108768 -5.506778 -10.064376 3.681784 -6.927232 12.644832 1.690300 -3.534100 7.171600 3.869527 -16.731092 -0.454914 -27.078736 -50.785515 22.492180 16.861725 -19.648703 -5.475906 -2.515570 -4.378372 -19.129837 14.825947 37.796397 12.239400 -7.125000 0.000000 0.000000 -26.323600 70.349800 -16.308700 -3.856636 17.476446 -2.585272 21.437801 49.349838 -3.723644 -11.386990 14.948741 -4.177480 -3.077234 -2.219102 25.662195 -25.269190 30.281653 -13.872400 7.125000 0.000000 0.000000 4.989300 6.665100 5.554700 
8.977459 17.161881 -0.957558 1.645959 -0.073356 -7.094626 -3.340737 -1.116558 0.146333 -4.593119 2.459916 -16.714715 5.211075 15.146287 44.847621 -2.376016 9.327041 -4.240163 0.648500 -5.151500 -14.341200 0.654260 0.632520 -1.074998 9.485118 -1.860310 -13.354342 -5.903852 -15.560679 47.478745 2.025113 -10.866232 -16.587312 -0.406700 4.094000 -11.341200 -1.062974 0.436674 2.706348 0.612835 0.243950 -4.347615 2.707064 0.592726 -1.223159 -7.132889 -5.560087 -10.101286 3.698444 -6.996523 12.629352 1.708400 -3.568100 7.187000 3.869959 -16.739741 -0.479258 -27.047001 -50.840633 22.519483 16.831804 -19.599473 -5.448030 -2.530969 -4.356152 -19.095073 14.886770 37.605799 12.234100 -7.125000 0.000000 0.000000 -25.893800 70.189600 -15.940000 -3.857796 17.479253 -2.555168 21.329248 49.275280 -3.866123 -11.303142 14.916523 -4.172273 -3.065012 -2.227432 26.094575 -25.638563 30.226511 -14.121500 7.125000 0.000000 0.000000 4.759700 6.729300 5.302000 
